<svg width="50" height="50" viewBox="0 0 50 50" fill="none" xmlns="http://www.w3.org/2000/svg">
<path d="M45.8333 0H4.16667C3.0616 0 2.00179 0.438987 1.22039 1.22039C0.438987 2.00179 0 3.0616 0 4.16667V45.8333C0 46.9384 0.438987 47.9982 1.22039 48.7796C2.00179 49.561 3.0616 50 4.16667 50H45.8333C46.9384 50 47.9982 49.561 48.7796 48.7796C49.561 47.9982 50 46.9384 50 45.8333V4.16667C50 3.0616 49.561 2.00179 48.7796 1.22039C47.9982 0.438987 46.9384 0 45.8333 0ZM39.5833 27.0833H27.0833V39.5833C27.0833 40.1359 26.8638 40.6658 26.4731 41.0565C26.0824 41.4472 25.5525 41.6667 25 41.6667C24.4475 41.6667 23.9176 41.4472 23.5269 41.0565C23.1362 40.6658 22.9167 40.1359 22.9167 39.5833V27.0833H10.4167C9.86413 27.0833 9.33423 26.8638 8.94353 26.4731C8.55283 26.0824 8.33333 25.5525 8.33333 25C8.33333 24.4475 8.55283 23.9176 8.94353 23.5269C9.33423 23.1362 9.86413 22.9167 10.4167 22.9167H22.9167V10.4167C22.9167 9.86413 23.1362 9.33423 23.5269 8.94353C23.9176 8.55283 24.4475 8.33333 25 8.33333C25.5525 8.33333 26.0824 8.55283 26.4731 8.94353C26.8638 9.33423 27.0833 9.86413 27.0833 10.4167V22.9167H39.5833C40.1359 22.9167 40.6658 23.1362 41.0565 23.5269C41.4472 23.9176 41.6667 24.4475 41.6667 25C41.6667 25.5525 41.4472 26.0824 41.0565 26.4731C40.6658 26.8638 40.1359 27.0833 39.5833 27.0833Z" fill="white"/>
</svg>
