<svg width="50" height="40" viewBox="0 0 50 40" fill="none" xmlns="http://www.w3.org/2000/svg">
<path d="M17.5 35H45V28.3125H17.5V35ZM5 11.6875H12.5V5H5V11.6875ZM5 23.375H12.5V16.6875H5V23.375ZM5 35H12.5V28.3125H5V35ZM17.5 23.375H45V16.6875H17.5V23.375ZM17.5 11.6875H45V5H17.5V11.6875ZM5 40C3.625 40 2.4475 39.51 1.4675 38.53C0.487504 37.55 -0.00166242 36.3733 4.24448e-06 35V5C4.24448e-06 3.625 0.490004 2.4475 1.47 1.4675C2.45 0.487504 3.62667 -0.00166242 5 4.24448e-06H45C46.375 4.24448e-06 47.5525 0.490004 48.5325 1.47C49.5125 2.45 50.0017 3.62667 50 5V35C50 36.375 49.51 37.5525 48.53 38.5325C47.55 39.5125 46.3733 40.0017 45 40H5Z" fill="#F4F4F4"/>
</svg>
